<svg xmlns="http://www.w3.org/2000/svg" viewBox="0 0 32 32" fill="none">
  <rect width="32" height="32" rx="8" fill="#0f172a"/>
  <path d="M8 10h16c.8 0 1.5.7 1.5 1.5V13c-1.2.3-2.1 1.3-2.1 2.5s.9 2.2 2.1 2.5v1.5c0 .8-.7 1.5-1.5 1.5H8c-.8 0-1.5-.7-1.5-1.5v-1.5c1.2-.3 2.1-1.3 2.1-2.5S7.7 13.3 6.5 13v-1.5C6.5 10.7 7.2 10 8 10z" stroke="#0891b2" stroke-width="1.7" stroke-linejoin="round"/>
  <path d="M12.2 13.3h6.1c.8 0 1.5.3 2 .8.6.5.9 1.2.9 2v2.4c0 3.1-1.7 5.9-4.5 7.3-.6.3-1.3.3-1.9 0-2.8-1.4-4.5-4.2-4.5-7.3v-2.4c0-.8.3-1.5.9-2 .5-.5 1.2-.8 2-.8z" fill="#10b981"/>
  <path d="M13.4 18.7h5.1M14.6 16.3l2.2 4" stroke="#0f172a" stroke-width="1.6" stroke-linecap="round" stroke-linejoin="round"/>
</svg>
