<?xml version="1.0" encoding="UTF-8" standalone="no"?>
<!-- Created with Inkscape (http://www.inkscape.org/) -->

<svg
   width="96.047791mm"
   height="118.61629mm"
   viewBox="0 0 96.04779 118.61629"
   version="1.1"
   id="svg1"
   xml:space="preserve"
   xmlns:inkscape="http://www.inkscape.org/namespaces/inkscape"
   xmlns:sodipodi="http://sodipodi.sourceforge.net/DTD/sodipodi-0.dtd"
   xmlns="http://www.w3.org/2000/svg"
   xmlns:svg="http://www.w3.org/2000/svg"><sodipodi:namedview
     id="namedview1"
     pagecolor="#ffffff"
     bordercolor="#000000"
     borderopacity="0.25"
     inkscape:showpageshadow="2"
     inkscape:pageopacity="0.0"
     inkscape:pagecheckerboard="0"
     inkscape:deskcolor="#d1d1d1"
     inkscape:document-units="mm"><inkscape:page
       x="2.5589887e-20"
       y="0"
       width="96.047783"
       height="118.61629"
       id="page2"
       margin="0"
       bleed="0" /></sodipodi:namedview><defs
     id="defs1" /><g
     inkscape:label="Camada 1"
     inkscape:groupmode="layer"
     id="layer1"
     transform="translate(-67.497327,-85.790269)"><g
       id="g2"><path
         style="fill:#09b6f0"
         d="m 115.65149,191.87984 c 0,-13.75881 -0.1234,-12.67926 1.55761,-13.62578 1.81137,-1.01991 2.4781,-1.41317 4.7183,-2.78297 1.34169,-0.82039 2.49731,-1.49163 2.56804,-1.49163 0.0707,0 0.75892,-0.37382 1.52931,-0.83071 1.80056,-1.06785 2.97364,-1.73968 6.03091,-3.45395 2.54703,-1.42816 4.17828,-2.37134 6.87917,-3.97746 3.28797,-1.95524 6.91676,-4.05569 8.59896,-4.97733 0.87312,-0.47836 3.25437,-1.84102 5.29166,-3.02812 2.03729,-1.18711 4.83526,-2.79498 6.21771,-3.57305 1.38245,-0.77807 2.8112,-1.61588 3.175,-1.8618 0.3638,-0.24592 0.81029,-0.39465 0.99219,-0.33051 0.25822,0.091 0.33073,2.83581 0.33073,12.51967 0,12.14942 -0.0111,12.41336 -0.54056,12.90667 -0.2973,0.27698 -1.93441,1.25533 -3.63802,2.17413 -1.7036,0.91879 -3.57372,1.96729 -4.1558,2.32999 -0.58208,0.36271 -1.71318,1.01735 -2.51354,1.45475 -0.80036,0.43741 -3.32286,1.89908 -5.60555,3.24816 -2.2827,1.34908 -4.66395,2.7136 -5.29167,3.03226 -0.62773,0.31867 -2.03429,1.13718 -3.1257,1.81891 -1.0914,0.68174 -4.1275,2.46995 -6.74687,3.97381 -2.61938,1.50385 -7.19986,4.14444 -10.17885,5.86797 -2.979,1.72353 -5.56861,3.13369 -5.75469,3.13369 -0.26996,0 -0.33834,-2.53157 -0.33834,-12.5267 z m -25.532287,-1.51065 c -0.7276,-0.43898 -1.50151,-0.90904 -1.71979,-1.04459 -0.21828,-0.13555 -1.05172,-0.62811 -1.85208,-1.09459 -0.80036,-0.46647 -1.96054,-1.19002 -2.57816,-1.60788 -0.61762,-0.41785 -2.2845,-1.42283 -3.70417,-2.23327 -4.16482,-2.37757 -4.33112,-2.47519 -5.73633,-3.36756 -0.73854,-0.469 -2.47389,-1.48844 -3.85634,-2.26543 -1.38245,-0.77699 -2.66237,-1.59699 -2.84427,-1.82221 -0.25277,-0.31298 -0.33073,-3.01546 -0.33073,-11.46533 V 154.4125 l 0.59531,-0.36672 c 0.32743,-0.2017 1.78594,-1.05429 3.24115,-1.89464 1.45521,-0.84035 3.89599,-2.26583 5.42396,-3.16771 1.52797,-0.90189 4.08781,-2.39089 5.68854,-3.30889 1.60073,-0.918 3.62479,-2.08612 4.49791,-2.59582 3.32778,-1.94265 4.90335,-2.72728 5.15908,-2.56923 0.17379,0.10741 0.26488,8.84756 0.26488,25.4158 0,28.60295 0.24426,25.9481 -2.24896,24.4439 z m 25.532287,-38.44143 c 0,-14.03585 -0.33966,-12.38833 2.91042,-14.11665 1.09141,-0.58038 3.3536,-1.86384 5.02709,-2.85213 1.67348,-0.98829 3.45942,-2.03161 3.96874,-2.31848 0.50933,-0.28688 1.04511,-0.6176 1.19063,-0.73495 0.14552,-0.11735 1.07407,-0.64262 2.06345,-1.16727 0.98938,-0.52466 2.29907,-1.27537 2.91042,-1.66824 0.61135,-0.39288 1.64733,-1.0002 2.30217,-1.34961 1.70542,-0.90996 2.94554,-1.88883 2.76436,-2.18199 -0.0858,-0.13881 -0.77263,-0.56466 -1.52631,-0.94634 -0.75369,-0.38168 -1.73877,-0.97473 -2.18906,-1.31788 -0.4503,-0.34316 -0.89594,-0.62392 -0.99031,-0.62392 -0.0944,0 -2.28579,-1.26821 -4.86982,-2.81824 -2.58403,-1.55004 -5.35308,-3.17649 -6.15344,-3.61435 -0.80037,-0.43785 -2.05052,-1.17049 -2.77813,-1.62807 -0.7276,-0.45758 -2.00933,-1.22214 -2.84828,-1.69903 l -1.52536,-0.86707 -2.03409,1.11637 c -1.11875,0.61401 -3.46843,1.97551 -5.22151,3.02555 -1.75308,1.05005 -3.7232,2.17702 -4.37805,2.50438 -0.65484,0.32737 -1.84547,1.00251 -2.64583,1.50032 -0.80037,0.49781 -4.431767,2.60785 -8.069787,4.68897 -5.76795,3.29955 -12.96143,7.45536 -18.65313,10.77626 -2.10711,1.22943 -4.86013,2.7593 -6.0349,3.35363 -0.76145,0.38523 -0.90745,0.3925 -1.12043,0.0558 -0.14099,-0.22291 -0.24661,-5.64637 -0.24895,-12.7826 l -0.004,-12.39541 0.75828,-0.70146 c 0.41705,-0.38581 1.57791,-1.13209 2.57969,-1.65841 1.00177,-0.52632 3.01203,-1.64276 4.46724,-2.48098 1.45521,-0.83822 3.18162,-1.8219 3.83646,-2.18595 1.71483,-0.95335 5.53233,-3.20831 6.61458,-3.90717 0.50932,-0.32889 1.46182,-0.89226 2.11667,-1.25194 0.65484,-0.35968 2.55984,-1.45775 4.23333,-2.440161 3.32178,-1.95004 4.31819,-2.53046 5.6224,-3.27514 0.47294,-0.270038 1.75286,-1.014188 2.844267,-1.653648 1.0914,-0.63946 2.34156,-1.33883 2.77812,-1.55416 0.43657,-0.21532 1.15094,-0.64674 1.5875,-0.95871 0.43656,-0.31197 1.32953,-0.86306 1.98438,-1.22464 0.65484,-0.36158 2.38125,-1.35386 3.83646,-2.20507 5.30702,-3.10431 5.14603,-3.06701 7.19142,-1.66612 0.6083,0.41663 1.16297,0.7575 1.23259,0.7575 0.0696,0 1.83411,1.03354 3.92108,2.29675 4.68842,2.83785 11.31826,6.699078 11.50248,6.699078 0.0753,0 0.9316,0.50904 1.90297,1.13119 0.97136,0.62216 2.59956,1.61687 3.6182,2.21047 4.41188,2.570941 10.13648,5.925981 11.1125,6.512731 0.58209,0.34993 2.24896,1.32957 3.70417,2.17697 1.45521,0.84741 3.24114,1.90316 3.96875,2.34612 0.7276,0.44296 1.84959,1.08042 2.4933,1.41658 2.33175,1.21768 2.13691,0.0261 2.13691,13.06852 v 11.58264 l -0.72761,0.50972 c -0.40018,0.28034 -1.38245,0.87174 -2.18281,1.31421 -0.80036,0.44248 -4.25318,2.44007 -7.67292,4.43909 -6.72672,3.93212 -6.50325,3.80394 -10.58333,6.07063 -1.52797,0.84886 -3.07578,1.74474 -3.43958,1.99084 -0.3638,0.24611 -1.3163,0.807 -2.11667,1.24642 -0.80036,0.43943 -2.64583,1.48788 -4.10104,2.32988 -1.45521,0.84201 -3.89599,2.23734 -5.42396,3.10075 -1.52797,0.86341 -2.89719,1.6643 -3.04271,1.77975 -0.60079,0.47668 -8.02152,4.50683 -8.29844,4.50683 -0.21997,0 -0.30051,-3.28628 -0.30051,-12.26212 z"
         id="path2" /></g></g></svg>
